<?xml version="1.0" encoding="UTF-8"?>
<svg id="Layer_1" xmlns="http://www.w3.org/2000/svg" xmlns:xlink="http://www.w3.org/1999/xlink" version="1.1" viewBox="0 0 595.3 441.6">
  <!-- Generator: Adobe Illustrator 29.2.1, SVG Export Plug-In . SVG Version: 2.1.0 Build 116)  -->
  <defs>
    <style>
      .st0 {
        fill: url(#linear-gradient1);
      }

      .st1 {
        fill: url(#linear-gradient);
      }

      .st2 {
        fill: #608dfd;
      }

      .st3 {
        fill: #428ea2;
      }

      .st4 {
        fill: #608dfd;
      }
    </style>
    <linearGradient id="linear-gradient" x1="853" y1="96.9" x2="1087.5" y2="-104.9" gradientTransform="translate(-304.2 103.1) scale(.6 -.6)" gradientUnits="userSpaceOnUse">
      <stop offset="0" stop-color="#5a9fd4"/>
      <stop offset="1" stop-color="#306998"/>
    </linearGradient>
    <linearGradient id="linear-gradient1" x1="1176.9" y1="-220.8" x2="1094.7" y2="-104.6" gradientTransform="translate(-304.2 103.1) scale(.6 -.6)" gradientUnits="userSpaceOnUse">
      <stop offset="0" stop-color="#ffd43b"/>
      <stop offset="1" stop-color="#ffe873"/>
    </linearGradient>
  </defs>
  <g id="Camada_x5F_1">
    <g id="_1832475734720">
      <g>
        <path id="path1948" class="st1" d="M299.9,44.4c-9.9,0-19.4.9-27.7,2.3-24.6,4.2-29,12.9-29,28.9v21.2h58v7.1h-79.8c-16.9,0-31.6,9.7-36.3,28.2-5.3,21.2-5.6,34.4,0,56.5,4.1,16.5,14,28.2,30.8,28.2h20v-25.4c0-18.4,16.6-34.6,36.3-34.6h58c16.1,0,29-12.7,29-28.3v-53c0-15.1-13.3-26.4-29-28.9-10-1.6-20.3-2.3-30.2-2.3ZM268.5,61.5c6,0,10.9,4.8,10.9,10.6,0,5.8-4.9,10.6-10.9,10.6-6,0-10.9-4.7-10.9-10.6s4.9-10.6,10.9-10.6Z"/>
        <path id="path1950" class="st0" d="M366.3,103.9v24.7c0,19.1-16.9,35.3-36.3,35.3h-58c-15.9,0-29,13-29,28.3v53c0,15.1,13.7,23.9,29,28.3,18.4,5.2,36,6.1,58,0,14.6-4.1,29-12.2,29-28.3v-21.2h-58v-7.1h87c16.9,0,23.1-11.3,29-28.2,6.1-17.4,5.8-34.2,0-56.5-4.2-16.1-12.1-28.2-29-28.2h-21.8ZM333.7,238c6,0,10.9,4.7,10.9,10.6s-4.9,10.6-10.9,10.6-10.9-4.8-10.9-10.6,4.9-10.6,10.9-10.6Z"/>
      </g>
      <path class="st4" d="M2.9,288.8s9.2-.1,25.3-.4c8.1,0,17.8-.2,29.1-.3,11.2-.1,23.9-.3,37.7-.4,13.8-.1,28.8-.2,44.6-.3,15.8,0,32.5-.2,49.8-.3,17.3,0,35.1-.1,53.2-.2,18.1,0,36.6,0,55,0,18.4,0,36.8,0,55,0,18.1,0,36,.1,53.2.2,17.3.1,34,.2,49.8.3,15.8.1,30.8.2,44.6.3,13.8,0,26.5.2,37.7.4,11.2.1,21,.3,29.1.4,16.1.2,25.3.4,25.3.4,0,0-9.2.1-25.3.4-8.1,0-17.8.2-29.1.4-11.2.1-23.9.3-37.7.4-13.8.1-28.8.2-44.6.3-15.8,0-32.5.2-49.8.3-17.3,0-35.1.1-53.2.2-18.1,0-36.6,0-55,0-18.4,0-36.8,0-55,0-18.1,0-36-.1-53.2-.2-17.3-.1-34-.2-49.8-.3-15.8-.1-30.8-.2-44.6-.3-13.8,0-26.5-.2-37.7-.4-11.2-.1-21-.3-29.1-.3-16.1-.2-25.3-.4-25.3-.4h0Z"/>
      <g>
        <polygon class="st2" points="221.3 338.3 221.3 315.6 184.8 315.6 184.8 338.3 192.2 338.3 192.2 418.6 184.8 418.6 184.8 441.2 221.3 441.2 221.3 418.6 213.9 418.6 213.9 338.3 221.3 338.3"/>
        <polygon class="st2" points="75 426.3 75 408.3 52.4 408.3 52.4 418.6 25.6 418.6 25.6 338.3 52.4 338.3 52.4 348.6 75 348.6 75 315.6 52.4 315.6 52.4 322.9 44.7 315.6 18.4 315.6 9.4 324.2 2.9 330.5 2.9 426.3 16.8 441.2 61.5 441.2 75 426.3"/>
        <path class="st2" d="M165.1,418.6l-20.2-103h-33.2l-18.8,103h-6.8v22.7h36.5v-22.7h-7l2.1-10.4h23.2l2.1,10.4h-7.4v22.7h36.5v-22.7h-6.9ZM122.6,385.6h0l6.8-32,6.8,32h-13.6Z"/>
        <path class="st2" d="M585.4,418.6l-20.2-103h-33.2l-18.8,103h-6.8v22.7h36.5v-22.7h-7l2.1-10.4h23.2l2.1,10.4h-7.4v22.7h36.5v-22.7h-6.9,0ZM542.9,385.6h0l6.8-32,6.8,32h-13.6Z"/>
        <path class="st3" d="M295.5,315.6h-26.1l-7,6.8v-6.6s-28.7-.2-28.7-.2l-.2,22.7h6.2s-.5,80.4-.5,80.4h-5.6v22.6h34.9v-22.6h-6.6l.2-19.8h33.4l14.2-13.7v-54.6l-14.2-14.9h0ZM286.3,376.4h-24.2v-38.1h24.2v38.1Z"/>
        <polygon class="st3" points="393.1 338.3 402.6 338.4 402.7 315.7 365.9 315.5 365.7 338.1 370 338.2 361.6 364 353.2 338.4 357.3 338.4 357.5 315.8 320.6 315.5 320.5 338.2 330 338.2 350.5 392.9 350.3 418.5 343.2 418.4 343.1 441.1 380 441.3 380.1 418.7 372.8 418.6 372.9 392.4 393.1 338.3"/>
        <path class="st2" d="M493.6,418.3h-9l-7.4-21.3,12.7-12.3v-54.6l-14.2-14.9h-26.1l-7,6.8v-6.6s-28.7-.2-28.7-.2l-.2,22.6h6.3s-.5,80.4-.5,80.4h-5.6v22.7h34.9v-22.7h-6.6l.2-19.8h11.2l7.9,19.8,9,22.7.3.7h22.1l-.2-.7h1v-22.7h0ZM466.5,366.8h-24.2v-28.8h24.2v28.8Z"/>
      </g>
    </g>
  </g>
</svg>